<?xml version="1.0" encoding="utf-8"?>
<!-- Generator: Adobe Illustrator 23.0.1, SVG Export Plug-In . SVG Version: 6.00 Build 0)  -->
<svg version="1.1" id="Calque_1" xmlns="http://www.w3.org/2000/svg" xmlns:xlink="http://www.w3.org/1999/xlink" x="0px" y="0px"
	 viewBox="0 0 180 60" style="enable-background:new 0 0 180 60;" xml:space="preserve">
<style type="text/css">
	.Voûte _x002D__x0020_Vert{fill:url(#SVGID_1_);stroke:#FFFFFF;stroke-width:0.25;stroke-miterlimit:1;}
	.st0{fill:#00A5E5;}
	.st1{fill:#154396;}
	.st2{fill:url(#SVGID_2_);}
	.st3{fill:url(#SVGID_3_);}
	.st4{fill:url(#SVGID_4_);}
	.st5{fill:url(#SVGID_5_);}
</style>
<linearGradient id="SVGID_1_" gradientUnits="userSpaceOnUse" x1="-466.1926" y1="435.5462" x2="-465.4855" y2="434.8391">
	<stop  offset="0" style="stop-color:#20AC4B"/>
	<stop  offset="0.9831" style="stop-color:#19361A"/>
</linearGradient>
<g>
	<g>
		<path class="st0" d="M91.28,54.29h-2.35c0-0.04,0.01-0.17,0.05-0.34h0.11c0.22,0,0.28-0.07,0.28-0.39c0-0.45-0.13-0.92-0.19-1.36
			l-0.2-1.36c-1.83-0.04-0.92-0.02-2.73-0.01l-0.56,1.04c-0.16,0.32-0.63,1.31-0.63,1.63c0,0.27,0.18,0.46,0.44,0.46h0.26
			l-0.05,0.34h-2.2l0.05-0.34h0.1c0.26,0,0.42-0.36,0.85-1.15l3.6-6.62l0.24-0.49l0.87-0.1l0.06,0.6l1.16,6.44
			c0.19,1.03,0.33,1.32,0.66,1.32h0.25L91.28,54.29z M88.3,46.99l-1.77,3.27c1.53,0.01,0.76,0.01,2.34,0L88.3,46.99z"/>
		<path class="st0" d="M97.13,47.45l-0.55,3.66c-0.13,0.83-0.18,1.46-0.18,1.96c0,0.65,0.17,0.9,0.59,0.9h0.18l-0.04,0.25
			l-1.66,0.13l-0.07-0.06c0-0.46,0-0.51,0.09-1.22c0.01-0.13,0.04-0.31,0.06-0.56c-0.6,0.71-0.88,1.01-1.28,1.39
			c-0.45,0.41-0.78,0.57-1.13,0.57c-0.71,0-1.13-0.7-1.13-1.86c0-2.05,1.04-3.92,3.28-3.92c0.24,0,0.39,0.01,0.74,0.08l0.3-2.1
			c0.05-0.38,0.15-1.12-0.41-1.12H95.7l0.04-0.25l1.73-0.11l0.05,0.06C97.33,46.06,97.29,46.32,97.13,47.45 M94.89,49.28
			c-0.4,0-0.78,0.11-1.01,0.31c-0.52,0.41-0.88,1.42-0.88,2.43c0,0.95,0.25,1.54,0.66,1.54c0.24,0,0.55-0.17,0.88-0.51
			c0.74-0.74,1.02-1.21,1.18-2.25l0.1-0.69c0.03-0.17,0.03-0.26,0.03-0.31C95.85,49.47,95.51,49.28,94.89,49.28"/>
		<path class="st0" d="M101.72,51.94c-0.81,1.46-1.77,2.54-2.25,2.54c-0.37,0-0.48-0.31-0.59-1.4l-0.09-0.98
			c-0.06-0.71-0.13-1.41-0.23-2.16c-0.08-0.57-0.26-0.8-0.64-0.8h-0.17l0.04-0.26l1.72-0.13l0.05,0.06
			c-0.03,0.59-0.01,1.15,0.01,1.73c0.05,1.15,0.06,1.37,0.14,1.97c0.08,0.6,0.15,0.74,0.36,0.74c0.23,0,0.47-0.23,0.8-0.74
			c0.53-0.83,0.84-1.73,0.84-2.47c0-0.41-0.13-0.64-0.37-0.64c-0.06,0-0.14,0.01-0.22,0.02l-0.06-0.02v-0.06
			c0-0.43,0.33-0.62,1.06-0.62c0.43,0,0.55,0.11,0.55,0.51C102.67,49.8,102.26,50.96,101.72,51.94"/>
		<path class="st0" d="M106.92,52.92c-0.66,1.02-1.54,1.6-2.42,1.6c-1,0-1.56-0.7-1.56-1.95c0-0.81,0.25-1.65,0.7-2.37
			c0.64-1,1.53-1.62,2.38-1.62c1.22,0,1.6,0.93,1.6,2.01C107.62,51.39,107.37,52.25,106.92,52.92 M105.6,49.21
			c-1.32,0-1.59,2.14-1.59,3.05c0,1.15,0.32,1.69,0.98,1.69c0.92,0,1.58-1.31,1.58-3.16C106.57,49.72,106.26,49.21,105.6,49.21"/>
		<path class="st0" d="M111.64,50.08l-0.09,0.01l-0.06-0.05c-0.13-0.52-0.36-0.74-0.75-0.74c-0.86,0-1.54,1.17-1.54,2.66
			c0,1.09,0.41,1.69,1.13,1.69c0.57,0,1.02-0.38,1.41-0.75l0.2,0.25c-0.6,0.62-1.18,1.3-2.12,1.3c-0.99,0-1.56-0.76-1.56-2.07
			c0-2.03,1.36-3.69,3.03-3.69c0.67,0,1.03,0.22,1,0.65C112.26,49.82,112.02,50.03,111.64,50.08"/>
		<path class="st0" d="M117.48,54.23l-1.65,0.13l-0.05-0.06c0.03-0.73,0.05-0.98,0.15-1.84c-0.19,0.25-0.34,0.44-0.45,0.57
			c-0.39,0.48-1.13,1.39-1.79,1.39c-0.65,0-1.04-0.66-1.04-1.76c0-2.38,1.34-3.95,3.36-3.95c0.56,0,1.09,0.1,1.47,0.29l0.01,0.1
			l-0.29,0.48l-0.12,0.62l-0.22,1.51c-0.07,0.55-0.11,0.97-0.11,1.35c0,0.66,0.17,0.92,0.6,0.92h0.18L117.48,54.23z M115.51,49.29
			c-0.57,0-0.99,0.2-1.26,0.6c-0.33,0.47-0.59,1.46-0.59,2.3c0,0.84,0.18,1.24,0.56,1.24c0.26,0,0.6-0.22,0.94-0.61
			c0.6-0.7,0.8-1.21,0.94-2.11l0.19-1.25C115.96,49.33,115.81,49.29,115.51,49.29"/>
		<path class="st0" d="M121.75,49.37h-1.55l-0.42,2.8c-0.08,0.48-0.24,1.53,0.51,1.53c0.28,0,0.51-0.11,0.98-0.47l0.19,0.23
			c-0.76,0.71-1.31,1.02-1.83,1.02c-1.08,0-0.95-1.11-0.81-1.83c0.04-0.24,0.06-0.43,0.08-0.56l0.39-2.71h-0.98l0.03-0.32h0.23
			c0.33,0,0.71-0.24,0.89-0.5c0.19-0.27,0.28-0.46,0.53-1.09h0.53l-0.23,1.4h1.63L121.75,49.37z"/>
		<path class="st0" d="M125.64,50.63c-0.21,0.09-0.53,0.19-1.11,0.33c-0.47,0.11-0.83,0.2-1.73,0.38c-0.03,0.26-0.04,0.36-0.04,0.59
			c0,1.05,0.47,1.7,1.26,1.7c0.55,0,0.97-0.28,1.38-0.6l0.19,0.23c-0.61,0.61-1.16,1.18-2.09,1.18c-1.04,0-1.69-0.8-1.69-2.13
			c0-1.97,1.32-3.65,2.87-3.65c0.83,0,1.37,0.51,1.37,1.26C126.06,50.29,125.93,50.5,125.64,50.63 M124.32,49.19
			c-0.69,0-1.19,0.61-1.42,1.65c0.54-0.09,0.98-0.18,1.51-0.33c0.46-0.13,0.65-0.3,0.65-0.61
			C125.06,49.51,124.73,49.19,124.32,49.19"/>
		<path class="st0" d="M129.42,49.97l-0.04-0.06c0-0.56-0.25-0.84-0.76-0.84c-0.5,0-0.84,0.33-0.84,0.83c0,0.41,0.17,0.64,0.81,1.13
			l0.43,0.33c0.52,0.39,0.74,0.79,0.74,1.28c0,1.06-0.9,1.83-2.12,1.83c-0.88,0-1.31-0.22-1.31-0.62c0-0.47,0.19-0.76,0.51-0.76
			c0.06,0,0.13,0.01,0.25,0.04l0.04,0.04c0.04,0.64,0.24,0.87,0.77,0.87c0.58,0,0.99-0.41,0.99-0.98c0-0.51-0.33-0.8-0.69-1.09
			l-0.55-0.45c-0.42-0.34-0.76-0.69-0.76-1.26c0-0.93,0.89-1.63,2.05-1.63c0.8,0,1.25,0.22,1.25,0.62
			C130.18,49.72,129.92,49.97,129.42,49.97"/>
		<path class="st0" d="M136.41,49.97l-0.04-0.06c0-0.56-0.25-0.84-0.76-0.84c-0.5,0-0.84,0.33-0.84,0.83c0,0.41,0.17,0.64,0.81,1.13
			l0.43,0.33c0.52,0.39,0.74,0.79,0.74,1.28c0,1.06-0.9,1.83-2.13,1.83c-0.88,0-1.31-0.22-1.31-0.62c0-0.47,0.19-0.76,0.51-0.76
			c0.06,0,0.13,0.01,0.26,0.04l0.04,0.04c0.04,0.64,0.24,0.87,0.76,0.87c0.59,0,0.99-0.41,0.99-0.98c0-0.51-0.33-0.8-0.69-1.09
			l-0.55-0.45c-0.42-0.34-0.76-0.69-0.76-1.26c0-0.93,0.89-1.63,2.05-1.63c0.8,0,1.25,0.22,1.25,0.62
			C137.18,49.72,136.91,49.97,136.41,49.97"/>
		<path class="st0" d="M139.61,51.01l-0.32,2.13c-0.05,0.33-0.1,0.9,0.37,0.9h0.17l-0.05,0.26h-1.92l0.04-0.26h0.06
			c0.18,0,0.23-0.05,0.29-0.32c0.11-0.42,0.19-0.89,0.29-1.6l0.26-1.77c0.05-0.39,0.23-1.22-0.4-1.22h-0.22l0.05-0.26l1.72-0.11
			l0.05,0.06C139.81,49.78,139.73,50.16,139.61,51.01 M139.61,47.46c-0.48,0-0.48-0.22-0.42-0.6c0.1-0.53,0.17-0.65,0.7-0.67
			c0.5-0.03,0.59,0.08,0.5,0.6C140.31,47.28,140.16,47.46,139.61,47.46"/>
		<path class="st0" d="M146.33,54.29h-1.93l0.04-0.26h0.07c0.18,0,0.23-0.05,0.29-0.32c0.11-0.42,0.22-0.99,0.3-1.6l0.18-1.18
			c0.06-0.44,0.24-1.38-0.47-1.38c-0.27,0-0.6,0.18-0.98,0.55c-0.71,0.65-1.04,1.23-1.18,2.16l-0.13,0.88
			c-0.05,0.33-0.14,0.9,0.36,0.9h0.15l-0.04,0.26h-1.93l0.05-0.26h0.06c0.18,0,0.23-0.05,0.28-0.32c0.11-0.42,0.2-0.95,0.31-1.6
			l0.22-1.44c0.09-0.58,0.31-1.55-0.42-1.55h-0.19l0.04-0.26l1.68-0.11l0.05,0.06c-0.09,0.65-0.11,0.84-0.27,1.74
			c0.59-0.66,0.82-0.88,1.32-1.3c0.53-0.43,0.86-0.6,1.25-0.6c0.6,0,0.92,0.36,0.92,0.99c0,0.42-0.12,0.92-0.18,1.35l-0.32,2.13
			c-0.05,0.33-0.14,0.9,0.36,0.9h0.17L146.33,54.29z"/>
		<path class="st0" d="M150.8,50.08l-0.09,0.01l-0.06-0.05c-0.13-0.52-0.36-0.74-0.75-0.74c-0.86,0-1.54,1.17-1.54,2.66
			c0,1.09,0.41,1.69,1.13,1.69c0.57,0,1.02-0.38,1.41-0.75l0.2,0.25c-0.6,0.62-1.18,1.3-2.12,1.3c-0.99,0-1.56-0.76-1.56-2.07
			c0-2.03,1.36-3.69,3.03-3.69c0.67,0,1.03,0.22,1,0.65C151.42,49.82,151.18,50.03,150.8,50.08"/>
		<path class="st0" d="M155.62,50.63c-0.22,0.09-0.53,0.19-1.11,0.33c-0.47,0.11-0.83,0.2-1.73,0.38c-0.03,0.26-0.04,0.36-0.04,0.59
			c0,1.05,0.47,1.7,1.26,1.7c0.55,0,0.97-0.28,1.37-0.6l0.19,0.23c-0.61,0.61-1.16,1.18-2.09,1.18c-1.05,0-1.69-0.8-1.69-2.13
			c0-1.97,1.32-3.65,2.88-3.65c0.83,0,1.37,0.51,1.37,1.26C156.04,50.29,155.91,50.5,155.62,50.63 M154.29,49.19
			c-0.69,0-1.2,0.61-1.42,1.65c0.53-0.09,0.98-0.18,1.51-0.33c0.46-0.13,0.65-0.3,0.65-0.61C155.03,49.51,154.7,49.19,154.29,49.19"
			/>
		<path class="st0" d="M162.78,48.2c-0.13,0.62-0.28,1.22-0.53,2.89l-0.27,1.69c-0.05,0.36-0.22,1.17,0.37,1.17h0.34l-0.05,0.34
			h-2.65l0.05-0.34h0.41c0.22,0,0.28-0.06,0.36-0.39c0.1-0.39,0.27-1.36,0.37-2.07l0.18-1.03c0.06-0.46,0.1-0.76,0.1-0.94
			c0-0.27-0.15-0.43-0.51-0.32l-1.12,0.37l-0.1-0.42l2.96-0.99l0.1,0.05H162.78z"/>
		<path class="st0" d="M165.29,56.79c-0.57,0.36-0.84,0.5-1.55,0.81l-0.2-0.47c0.77-0.33,1.07-0.5,1.58-0.85
			c1.8-1.28,3.11-3.35,3.11-5.62c0-1.28-0.47-2.01-1.32-2.01c-0.86,0-1.56,0.94-1.56,2.11c0,0.92,0.48,1.49,1.25,1.49
			c0.26,0,0.41-0.04,0.73-0.2l0.21,0.33c-0.46,0.3-0.93,0.57-1.5,0.57c-1.01,0-1.68-0.76-1.68-1.92c0-1.54,1.28-2.86,2.8-2.86
			c1.32,0,2.18,0.9,2.18,2.31C169.31,53.15,167.47,55.43,165.29,56.79"/>
		<path class="st0" d="M173.75,48.2c-0.13,0.62-0.28,1.22-0.54,2.89l-0.27,1.69c-0.05,0.36-0.22,1.17,0.37,1.17h0.34l-0.05,0.34
			h-2.65l0.05-0.34h0.41c0.22,0,0.28-0.06,0.36-0.39c0.1-0.39,0.27-1.36,0.37-2.07l0.18-1.03c0.06-0.46,0.1-0.76,0.1-0.94
			c0-0.27-0.15-0.43-0.51-0.32l-1.12,0.37l-0.1-0.42l2.97-0.99l0.1,0.05H173.75z"/>
		<path class="st0" d="M178.49,48.2c-0.13,0.62-0.28,1.22-0.53,2.89l-0.27,1.69c-0.05,0.36-0.21,1.17,0.37,1.17h0.35l-0.05,0.34
			h-2.65l0.05-0.34h0.41c0.22,0,0.28-0.06,0.36-0.39c0.1-0.39,0.27-1.36,0.37-2.07l0.18-1.03c0.06-0.46,0.1-0.76,0.1-0.94
			c0-0.27-0.15-0.43-0.51-0.32l-1.12,0.37l-0.1-0.42l2.97-0.99l0.1,0.05H178.49z"/>
	</g>
	<rect x="68.25" y="3.23" class="st1" width="2.19" height="51.06"/>
	<g>
		<polygon points="94.75,17.45 88.63,10.66 86.81,12.34 86.81,17.22 84.81,17.22 84.81,3.23 86.81,3.23 86.81,9.87 94.05,3.01 
			95.51,4.26 89.92,9.44 96.19,16.18 		"/>
		<polygon points="109.75,17.21 109.75,11.07 101.05,11.07 101.05,17.21 99.05,17.21 99.05,3.22 101.05,3.22 101.05,9.23 
			109.75,9.23 109.75,3.22 111.78,3.22 111.78,17.21 		"/>
		<rect x="131.33" y="3.22" width="2" height="14"/>
		<polygon points="166.56,7.28 166.56,17.24 164.56,17.24 164.56,2.73 175.85,13.05 175.85,3.24 177.86,3.24 177.86,17.66 		"/>
		<polygon points="143.24,5.06 143.24,17.21 141.27,17.21 141.27,5.06 135.91,5.06 135.91,3.22 148.57,3.22 148.6,5.06 		"/>
		<path d="M107.87,36.2c-4.28,0-7.77-3.25-7.77-7.2s3.49-7.17,7.74-7.17c2.94,0,5.26,1.4,6.55,2.98l-1.44,1.32
			c-0.48-0.59-2.16-2.43-5.07-2.43c-3.11-0.01-5.68,2.38-5.68,5.31c0,2.92,2.52,5.33,5.66,5.33c1.43,0,3.48-0.49,5.1-2.43l1.44,1.32
			C112.56,35.41,110.01,36.2,107.87,36.2"/>
		<path d="M123.6,36.05c-4.3,0-7.77-3.25-7.77-7.2c0-3.92,3.46-7.17,7.77-7.17c4.3,0,7.77,3.25,7.77,7.2
			C131.37,32.8,127.9,36.05,123.6,36.05 M123.6,23.55c-3.14,0-5.68,2.41-5.68,5.31c0,2.92,2.54,5.31,5.68,5.31
			c3.14,0,5.68-2.38,5.68-5.28C129.28,25.95,126.74,23.55,123.6,23.55"/>
		<path d="M95.36,29.78l-1.92,2.65l2.98,2.76l-1.54,1.3c0,0-2.08-2.14-2.6-2.65c-1.3,1.46-2.23,2.33-4.42,2.33
			c-2.38,0-4.38-1.39-4.38-3.83c0-2.17,1.48-3.17,2.99-4.07c-0.43-0.43-0.81-0.84-0.89-0.95c-0.51-0.65-0.89-1.35-0.89-2.22
			c0-1.81,1.6-3.25,3.52-3.25c2,0,3.58,1.43,3.58,3.25c0,0.57-0.16,1.19-0.49,1.68c-0.24,0.38-0.76,0.95-1.43,1.41
			c-0.11,0.11-0.32,0.22-0.49,0.33c0.7,0.76,2.74,2.71,2.74,2.71l2.35-3.11h3.09v1.68H95.36z M87.84,29.51
			c-0.97,0.59-2.46,1.31-2.46,2.75c0,1.44,1.07,2.15,2.5,2.15c0.78,0,1.62-0.28,2.32-0.98c0,0,0.7-0.73,0.75-0.81L87.84,29.51z
			 M88.19,23.53c-0.87,0-1.7,0.7-1.7,1.51c0,0.43,0.19,0.81,0.46,1.14c0.19,0.24,0.65,0.68,1.08,1.14c0.62-0.43,1.24-0.89,1.46-1.14
			c0.27-0.3,0.43-0.7,0.43-1.14C89.92,24.21,89.11,23.53,88.19,23.53"/>
		<path d="M160.5,17.4l-1.62-3.14h-7.76l-1.62,3.14l-1.81-0.74L155,2.78l7.32,13.88L160.5,17.4z M155.06,6.55L152,12.48h6.08
			L155.06,6.55z"/>
		<path d="M126.95,17.44l-1.61-3.18h-7.64l-1.61,3.18l-1.88-0.78l7.32-13.88l7.32,13.88L126.95,17.44z M121.52,6.67l-2.93,5.81h5.87
			L121.52,6.67z"/>
	</g>
	<g>
		<radialGradient id="SVGID_2_" cx="7.8523" cy="12.2592" r="43.558" gradientUnits="userSpaceOnUse">
			<stop  offset="0.4032" style="stop-color:#00ABE7"/>
			<stop  offset="0.483" style="stop-color:#00A9E5"/>
			<stop  offset="0.5604" style="stop-color:#00A2DF"/>
			<stop  offset="0.637" style="stop-color:#0096D5"/>
			<stop  offset="0.7131" style="stop-color:#0086C8"/>
			<stop  offset="0.7888" style="stop-color:#0074B9"/>
			<stop  offset="0.8642" style="stop-color:#005EA9"/>
			<stop  offset="0.9381" style="stop-color:#144497"/>
			<stop  offset="0.9409" style="stop-color:#154396"/>
		</radialGradient>
		<path class="st2" d="M47.68,28.52c5.45-9.4,1.19-15.2-3.44-20.31C39.74,4.57,34.02,2.4,27.8,2.4c-8.3,0-15.7,3.87-20.49,9.9
			c5.12-4.64,10.91-8.89,20.31-3.44c3.23,1.87,7.95,6.33,12.07,10.67c3.51,3.7,6.58,7.31,7.9,9.15
			C47.62,28.62,47.65,28.57,47.68,28.52z"/>
		
			<radialGradient id="SVGID_3_" cx="-253.2614" cy="25.0495" r="43.5575" gradientTransform="matrix(0 1 -1 0 69.3242 262.0122)" gradientUnits="userSpaceOnUse">
			<stop  offset="0.4032" style="stop-color:#00ABE7"/>
			<stop  offset="0.483" style="stop-color:#00A9E5"/>
			<stop  offset="0.5604" style="stop-color:#00A2DF"/>
			<stop  offset="0.637" style="stop-color:#0096D5"/>
			<stop  offset="0.7131" style="stop-color:#0086C8"/>
			<stop  offset="0.7888" style="stop-color:#0074B9"/>
			<stop  offset="0.8642" style="stop-color:#005EA9"/>
			<stop  offset="0.9381" style="stop-color:#144497"/>
			<stop  offset="0.9409" style="stop-color:#154396"/>
		</radialGradient>
		<path class="st3" d="M28.01,48.58c9.4,5.45,15.2,1.19,20.31-3.44c3.63-4.49,5.81-10.21,5.81-16.44c0-8.3-3.87-15.69-9.9-20.49
			c4.64,5.12,8.89,10.91,3.44,20.31c-1.87,3.23-6.33,7.95-10.67,12.07c-3.7,3.51-7.31,6.58-9.15,7.9
			C27.91,48.51,27.96,48.55,28.01,48.58z"/>
		
			<radialGradient id="SVGID_4_" cx="-180.2561" cy="290.5307" r="43.5577" gradientTransform="matrix(-1 0 0 -1 -132.4731 335.7036)" gradientUnits="userSpaceOnUse">
			<stop  offset="0.4032" style="stop-color:#00ABE7"/>
			<stop  offset="0.483" style="stop-color:#00A9E5"/>
			<stop  offset="0.5604" style="stop-color:#00A2DF"/>
			<stop  offset="0.637" style="stop-color:#0096D5"/>
			<stop  offset="0.7131" style="stop-color:#0086C8"/>
			<stop  offset="0.7888" style="stop-color:#0074B9"/>
			<stop  offset="0.8642" style="stop-color:#005EA9"/>
			<stop  offset="0.9381" style="stop-color:#144497"/>
			<stop  offset="0.9409" style="stop-color:#154396"/>
		</radialGradient>
		<path class="st4" d="M7.96,28.91c-5.45,9.4-1.19,15.2,3.44,20.31c4.49,3.63,10.21,5.81,16.44,5.81c8.3,0,15.7-3.87,20.49-9.9
			c-5.12,4.64-10.91,8.9-20.31,3.44c-3.23-1.87-7.95-6.33-12.07-10.67c-3.51-3.7-6.58-7.31-7.9-9.15
			C8.02,28.81,7.99,28.86,7.96,28.91z"/>
		
			<radialGradient id="SVGID_5_" cx="145.4406" cy="221.8927" r="43.5568" gradientTransform="matrix(0 -1 1 0 -210.5317 194.1211)" gradientUnits="userSpaceOnUse">
			<stop  offset="0.4032" style="stop-color:#00ABE7"/>
			<stop  offset="0.483" style="stop-color:#00A9E5"/>
			<stop  offset="0.5604" style="stop-color:#00A2DF"/>
			<stop  offset="0.637" style="stop-color:#0096D5"/>
			<stop  offset="0.7131" style="stop-color:#0086C8"/>
			<stop  offset="0.7888" style="stop-color:#0074B9"/>
			<stop  offset="0.8642" style="stop-color:#005EA9"/>
			<stop  offset="0.9381" style="stop-color:#144497"/>
			<stop  offset="0.9409" style="stop-color:#154396"/>
		</radialGradient>
		<path class="st5" d="M27.62,8.85c-9.4-5.45-15.2-1.19-20.31,3.44C3.67,16.79,1.5,22.51,1.5,28.74c0,8.3,3.87,15.7,9.9,20.49
			C6.76,44.11,2.5,38.32,7.96,28.91c1.87-3.23,6.33-7.95,10.67-12.07c3.7-3.51,7.31-6.58,9.15-7.9C27.73,8.92,27.67,8.88,27.62,8.85
			z"/>
	</g>
</g>
</svg>
