<?xml version="1.0" encoding="UTF-8"?> <svg xmlns="http://www.w3.org/2000/svg" xmlns:xlink="http://www.w3.org/1999/xlink" width="249.502" height="65.912" viewBox="0 0 249.502 65.912"><defs><linearGradient id="linear-gradient" x1="-0.695" y1="0.43" x2="15.341" y2="1.356" gradientUnits="objectBoundingBox"><stop offset="0.005" stop-color="#7f551c"></stop><stop offset="0.191" stop-color="#b07c1e"></stop><stop offset="0.365" stop-color="#d9ab37"></stop><stop offset="0.517" stop-color="#deb23a"></stop><stop offset="0.674" stop-color="#d7a936"></stop><stop offset="0.822" stop-color="#a8751f"></stop><stop offset="0.989" stop-color="#7f551c"></stop></linearGradient><linearGradient id="linear-gradient-2" x1="-0.758" y1="0.327" x2="6.19" y2="1.5" xlink:href="#linear-gradient"></linearGradient><linearGradient id="linear-gradient-3" x1="-2.781" y1="0.101" x2="6.319" y2="1.28" xlink:href="#linear-gradient"></linearGradient><linearGradient id="linear-gradient-4" x1="-3.928" y1="-0.059" x2="5.397" y2="1.121" xlink:href="#linear-gradient"></linearGradient><linearGradient id="linear-gradient-5" x1="-3.805" y1="-0.205" x2="3.322" y2="0.945" xlink:href="#linear-gradient"></linearGradient><linearGradient id="linear-gradient-6" x1="-4.732" y1="-0.344" x2="2.216" y2="0.829" xlink:href="#linear-gradient"></linearGradient><linearGradient id="linear-gradient-7" x1="-7.553" y1="-0.517" x2="1.547" y2="0.661" xlink:href="#linear-gradient"></linearGradient></defs><g id="Group_1423" data-name="Group 1423" transform="translate(-228.88 -406.734)"><g id="Group_1421" data-name="Group 1421" transform="translate(228.88 406.734)"><path id="Path_1227" data-name="Path 1227" d="M228.88,454.5c.05-.759.079-1.374.079-1.856l-.079-2.191.54-.284a5.281,5.281,0,0,0,2.838.877,3.069,3.069,0,0,0,2.889-1.407q.826-1.4.825-7.517V419.889q0-8.511-.49-9.5t-3.069-.992h-1.728v-1.626q2.786.182,7.066.181,4.745,0,8.047-.181v1.626l-1.712.1a7.406,7.406,0,0,0-2.528.466,1.49,1.49,0,0,0-.581.966,32.274,32.274,0,0,0-.157,4.4v22.2a30.5,30.5,0,0,1-.721,7.916,13.667,13.667,0,0,1-4.1,6.5q-3,2.682-5.725,2.683A10.241,10.241,0,0,1,228.88,454.5Z" transform="translate(-228.88 -407.252)" fill="url(#linear-gradient)"></path><path id="Path_1228" data-name="Path 1228" d="M293.409,431.8H278.49l-1.747,4.152a21.2,21.2,0,0,0-1.729,5.055,1.03,1.03,0,0,0,.323.852,3.9,3.9,0,0,0,1.636.412l2.477.284v1.625q-2.475-.182-5.57-.181-3.713,0-6.524.181v-1.625l.772-.026a5.618,5.618,0,0,0,2.334-.374,3.739,3.739,0,0,0,1.122-1.586q1.83-3.714,3.739-8.02l7.093-16.067q2.836-6.4,3.867-9.284h1.753l13.051,30.353a29.66,29.66,0,0,0,1.753,3.726,2.6,2.6,0,0,0,1,.9,8.359,8.359,0,0,0,2.554.375v1.625Q303.047,444,300,444q-2.836,0-7.556.181v-1.625L295,442.4a4.59,4.59,0,0,0,1.624-.283.863.863,0,0,0,.386-.723,10.3,10.3,0,0,0-.772-2.423Zm-13.957-2.114h12.992l-6.491-15.494Z" transform="translate(-248.169 -406.967)" fill="url(#linear-gradient-2)"></path><path id="Path_1229" data-name="Path 1229" d="M386.966,441.937q2.525.13,4.926.129,4.847,0,7.581-.258a26.259,26.259,0,0,0,3.947-.748l1.547-6.06h1.677q-.645,4.872-1.008,9.1a40.682,40.682,0,0,1-6.343.387l-12.276-.207q-2.474,0-7.709.285V443.2q2.063-.9,2.437-1.934t.374-8.174V418.908q0-7.737-.374-8.626t-2.1-.889h-2.812v-1.626q6.137.182,8.149.181,2.679,0,7.273-.181v1.626h-3.2q-1.367,0-1.727.785t-.362,6.538v16.428l.079,7.272Z" transform="translate(-303.05 -407.252)" fill="url(#linear-gradient-3)"></path><path id="Path_1230" data-name="Path 1230" d="M451.968,426.925v6.33l.025,3.641q0,3.412.077,4.986,3.773.285,8.087.284a38.284,38.284,0,0,0,4.853-.258,12.238,12.238,0,0,0,2.688-.671q.642-2.268,1.318-5.673h1.7q-.7,5.665-.7,7.552l.052,1.164q-2.966.257-5.828.259l-4.051-.078q-6.7-.182-9.851-.181-3.015,0-8.019.181v-1.625h.8a5.583,5.583,0,0,0,2.823-.439,3.077,3.077,0,0,0,.773-2.064q.193-1.623.194-7.169V419.008q0-3.48-.168-5.7a11.975,11.975,0,0,0-.362-2.644,1.491,1.491,0,0,0-.555-.658,7.044,7.044,0,0,0-2.217-.412l-1.986-.205v-1.626h2.786l2.732.091c1.532.061,2.69.09,3.482.09l9.9-.15,4.695-.031q2.4-.025,4.848.181a28.758,28.758,0,0,0-1.083,7.969h-1.753a32.634,32.634,0,0,0-.284-4.719,21.5,21.5,0,0,0-7.478-1.135q-3.534,0-7.4.308.026,2.421-.052,4.84l-.05,3.965V424.4q2.551.18,4.513.181,6.136,0,6.948-.426c.545-.285.814-1.164.814-2.644v-1.676H466q-.18,3.894-.181,6.214,0,2.451.181,5.776h-1.753v-1.5q0-2.475-.967-3.03t-6.821-.554Q454.289,426.746,451.968,426.925Z" transform="translate(-335.533 -407.249)" fill="url(#linear-gradient-4)"></path><path id="Path_1231" data-name="Path 1231" d="M541.128,431.749a25.1,25.1,0,0,0-.385,4.409,41.751,41.751,0,0,0,.385,5.338,43.292,43.292,0,0,1-7.75,2.154,44.829,44.829,0,0,1-8.264.812,22.916,22.916,0,0,1-10.688-2.386,17.089,17.089,0,0,1-7.08-6.628,19.9,19.9,0,0,1,.18-19.547,18.065,18.065,0,0,1,7.4-6.757,26.448,26.448,0,0,1,12.016-2.411,35.892,35.892,0,0,1,5.468.386,55.243,55.243,0,0,1,6.524,1.547l2.191.593a50.735,50.735,0,0,0-1.082,7.634h-1.625v-1.7q0-2.526-.411-2.964a12.519,12.519,0,0,0-4.1-2.05,21.91,21.91,0,0,0-7.608-1.225q-7.579,0-11.6,4.074-4.384,4.437-4.385,11.733a17.988,17.988,0,0,0,3.945,11.812q4.64,5.673,12.663,5.673a25.8,25.8,0,0,0,9.052-1.836q.154-2.169.155-4.627a32.664,32.664,0,0,0-.1-3.657.854.854,0,0,0-.373-.62,15.009,15.009,0,0,0-2.695-.35l-3.044-.257v-1.625q5.907.26,8.768.259a29.977,29.977,0,0,0,4.255-.259v1.289Z" transform="translate(-367.238 -406.734)" fill="url(#linear-gradient-5)"></path><path id="Path_1232" data-name="Path 1232" d="M612.476,431.8h-14.92l-1.748,4.152a21.063,21.063,0,0,0-1.725,5.055,1.022,1.022,0,0,0,.323.852,3.894,3.894,0,0,0,1.636.412l2.474.284v1.625q-2.474-.182-5.571-.181-3.71,0-6.523.181v-1.625l.774-.026a5.61,5.61,0,0,0,2.333-.374,3.73,3.73,0,0,0,1.121-1.586q1.833-3.714,3.741-8.02l7.092-16.067q2.836-6.4,3.868-9.284H607.1l13.05,30.353a30.52,30.52,0,0,0,1.752,3.726,2.6,2.6,0,0,0,1.008.9,8.339,8.339,0,0,0,2.549.375v1.625q-3.349-.182-6.393-.181-2.839,0-7.557.181v-1.625l2.554-.156a4.572,4.572,0,0,0,1.623-.283.857.857,0,0,0,.388-.723,10.349,10.349,0,0,0-.771-2.423Zm-13.96-2.114h12.993l-6.49-15.494Z" transform="translate(-408.121 -406.967)" fill="url(#linear-gradient-6)"></path><path id="Path_1233" data-name="Path 1233" d="M679.553,441.937q2.53.13,4.927.129,4.847,0,7.581-.258a26.224,26.224,0,0,0,3.946-.748l1.547-6.06h1.676q-.646,4.872-1.005,9.1a40.723,40.723,0,0,1-6.342.387l-12.278-.207q-2.471,0-7.709.285V443.2c1.374-.6,2.188-1.247,2.434-1.934s.374-3.414.374-8.174V418.908q0-7.737-.374-8.626c-.246-.593-.947-.889-2.1-.889h-2.814v-1.626q6.139.182,8.148.181,2.685,0,7.275-.181v1.626h-3.2q-1.37,0-1.726.785t-.365,6.538v16.428l.078,7.272Z" transform="translate(-449.728 -407.252)" fill="url(#linear-gradient-7)"></path></g><g id="Group_1422" data-name="Group 1422" transform="translate(234.336 461.981)"><path id="Path_1234" data-name="Path 1234" d="M243.5,521.462a2.616,2.616,0,0,1,1.6.511,1.564,1.564,0,0,1,.492,1.224,2.187,2.187,0,0,1-.823,1.7,3.078,3.078,0,0,1-2.091.717l-.407-.013c-.345-.016-.634-.026-.871-.026-.172,0-.384.01-.634.023l-.428.016v-.234a1.182,1.182,0,0,0,.378-.239.506.506,0,0,0,.069-.272c.026-.408.036-.874.036-1.4v-3.214a5.611,5.611,0,0,0-.091-1.458c-.076-.137-.26-.2-.552-.2h-.352v-.326h.429l.475.02c.247.01.442.016.583.016.217,0,.645-.01,1.284-.032l.754-.015a2.3,2.3,0,0,1,1.325.308,1.281,1.281,0,0,1,.553,1.114,1.512,1.512,0,0,1-.391,1.035A2.933,2.933,0,0,1,243.5,521.462Zm-1.713-.146c.172.009.33.016.475.016a2.328,2.328,0,0,0,1.471-.365,1.278,1.278,0,0,0,.444-1.049,1.132,1.132,0,0,0-.373-.912,1.8,1.8,0,0,0-1.185-.315,4.835,4.835,0,0,0-.786.065c-.029.419-.045,1.054-.045,1.9Zm0,3.78a5.484,5.484,0,0,0,.794.074,1.949,1.949,0,0,0,1.414-.488,1.755,1.755,0,0,0,.506-1.325,1.729,1.729,0,0,0-.223-.918,1.283,1.283,0,0,0-.62-.534,3.566,3.566,0,0,0-1.276-.166c-.177,0-.373.007-.594.016v1.83l0,.651c.011.231.015.41.015.534A2.787,2.787,0,0,1,241.786,525.095Z" transform="translate(-239.82 -517.89)" fill="#1a1818"></path><path id="Path_1235" data-name="Path 1235" d="M253.687,524.4l0-.347,0-.356.56-.319a3.24,3.24,0,0,1,.667-.3,2.227,2.227,0,0,1,.614-.085,1.877,1.877,0,0,1,1.145.323,1.25,1.25,0,0,1,.524.814,16.452,16.452,0,0,1,.079,1.84,10.737,10.737,0,0,0,.06,1.529.245.245,0,0,0,.259.144h.4v.342c-.39-.026-.666-.039-.82-.039q-.289,0-.774.039l.005-.458c0-.151,0-.3-.005-.449l-1.068.813a.975.975,0,0,1-.283.154,1.339,1.339,0,0,1-.385.042,1.438,1.438,0,0,1-1.017-.325,1.141,1.141,0,0,1-.351-.88,1.629,1.629,0,0,1,.249-.908,1.45,1.45,0,0,1,.711-.572,13.6,13.6,0,0,1,2.143-.486,1.522,1.522,0,0,0-.288-.978,1.254,1.254,0,0,0-1-.408,1.766,1.766,0,0,0-.464.059,1.615,1.615,0,0,0-.4.183c-.1.247-.189.48-.271.706Zm2.716.818a6.145,6.145,0,0,0-1.82.58.95.95,0,0,0-.387.836.836.836,0,0,0,.223.611.764.764,0,0,0,.572.228,1.43,1.43,0,0,0,.739-.215,2.552,2.552,0,0,0,.674-.644l-.009-1.143Z" transform="translate(-246.578 -520.265)" fill="#1a1818"></path><path id="Path_1236" data-name="Path 1236" d="M265.735,524.146a4.075,4.075,0,0,0,.449-.514,1.916,1.916,0,0,1,.539-.514,1.052,1.052,0,0,1,.523-.144,1.1,1.1,0,0,1,.435.069.105.105,0,0,1,.071.1l0,.051a6.88,6.88,0,0,0-.093,1.172h-.23a.856.856,0,0,0-.282-.37.663.663,0,0,0-.388-.111.9.9,0,0,0-.565.208,1,1,0,0,0-.345.576,7.709,7.709,0,0,0-.088,1.458,10.865,10.865,0,0,0,.057,1.2c.014.121.047.2.1.228a1.256,1.256,0,0,0,.576.1h.31v.3q-.79-.039-1.5-.039c-.459,0-.91.013-1.357.039v-.3l.5-.039a.52.52,0,0,0,.33-.1,1.064,1.064,0,0,0,.092-.5c.024-.5.037-1.085.037-1.765a5.783,5.783,0,0,0-.1-1.459c-.045-.094-.187-.14-.425-.14h-.433v-.3a8.178,8.178,0,0,0,.892-.15,3.434,3.434,0,0,0,.7-.228.258.258,0,0,1,.119-.035.09.09,0,0,1,.077.029.3.3,0,0,1,.021.139Z" transform="translate(-251.917 -520.243)" fill="#1a1818"></path><path id="Path_1237" data-name="Path 1237" d="M274.521,524.146a4.114,4.114,0,0,0,.451-.514,1.872,1.872,0,0,1,.539-.514,1.045,1.045,0,0,1,.523-.144,1.064,1.064,0,0,1,.432.069.105.105,0,0,1,.073.1l0,.051a6.852,6.852,0,0,0-.095,1.172h-.231a.841.841,0,0,0-.281-.37.664.664,0,0,0-.388-.111.9.9,0,0,0-.563.208,1,1,0,0,0-.347.576,7.649,7.649,0,0,0-.088,1.458,10.986,10.986,0,0,0,.057,1.2.3.3,0,0,0,.1.228,1.263,1.263,0,0,0,.577.1h.311v.3q-.79-.039-1.5-.039c-.459,0-.91.013-1.358.039v-.3l.5-.039a.521.521,0,0,0,.332-.1,1.06,1.06,0,0,0,.09-.5c.024-.5.038-1.085.038-1.765a5.628,5.628,0,0,0-.1-1.459c-.044-.094-.185-.14-.422-.14h-.434v-.3a8.158,8.158,0,0,0,.893-.15,3.449,3.449,0,0,0,.7-.228.264.264,0,0,1,.12-.035.085.085,0,0,1,.075.029.285.285,0,0,1,.021.139Z" transform="translate(-256.322 -520.243)" fill="#1a1818"></path><path id="Path_1238" data-name="Path 1238" d="M283.407,520.664l.123.078c-.024.257-.038.544-.047.849-.022,1.006-.036,1.748-.036,2.224,0,.446.015.83.047,1.146a.4.4,0,0,0,.1.258.739.739,0,0,0,.372.106l.35.046v.3c-.5-.026-.956-.039-1.371-.039s-.815.013-1.23.039v-.3l.446-.046c.171-.013.278-.044.317-.095a1.139,1.139,0,0,0,.075-.5c.016-.44.024-1.042.024-1.81q0-.8-.024-1.237a.308.308,0,0,0-.09-.227.647.647,0,0,0-.36-.065h-.388v-.3c.421-.062.731-.117.928-.169A7.292,7.292,0,0,0,283.407,520.664Zm-.413-2.282a.547.547,0,0,1,.408.171.583.583,0,1,1-.991.414.571.571,0,0,1,.17-.414A.555.555,0,0,1,282.994,518.382Z" transform="translate(-260.822 -517.952)" fill="#1a1818"></path><path id="Path_1239" data-name="Path 1239" d="M288.935,526.408v.335a1.068,1.068,0,0,0,.072.5,1.351,1.351,0,0,0,.524.32,2.141,2.141,0,0,0,.8.157,1.3,1.3,0,0,0,.867-.287.874.874,0,0,0,.337-.683.675.675,0,0,0-.2-.508,1.561,1.561,0,0,0-.747-.3,7.5,7.5,0,0,1-1.356-.361,1.059,1.059,0,0,1-.661-1.039,1.409,1.409,0,0,1,.5-1.115,2.1,2.1,0,0,1,1.414-.431,3.841,3.841,0,0,1,1.44.29c-.03.235-.052.628-.07,1.175h-.311a1.383,1.383,0,0,0-.1-.595,1,1,0,0,0-.432-.345,1.476,1.476,0,0,0-.668-.157,1.113,1.113,0,0,0-.749.241.76.76,0,0,0-.282.6.624.624,0,0,0,.222.52,3.539,3.539,0,0,0,1.227.381,4.065,4.065,0,0,1,.981.28.966.966,0,0,1,.381.391,1.242,1.242,0,0,1,.145.6,1.525,1.525,0,0,1-.6,1.2,2.371,2.371,0,0,1-1.592.5,5.826,5.826,0,0,1-1.423-.2c-.093-.023-.139-.059-.139-.107l.015-.072a1.559,1.559,0,0,0,.036-.274c.031-.335.045-.6.045-.78l0-.248Z" transform="translate(-264.236 -520.265)" fill="#1a1818"></path><path id="Path_1240" data-name="Path 1240" d="M299.325,522.357v2.025a5.926,5.926,0,0,0,.052,1.013.6.6,0,0,0,.21.349.63.63,0,0,0,.4.12.7.7,0,0,0,.292-.058,1.04,1.04,0,0,0,.279-.176l.15.18-.5.589a2.525,2.525,0,0,1-.322.087,1.568,1.568,0,0,1-.3.03,1.373,1.373,0,0,1-.644-.137.844.844,0,0,1-.384-.355,1.42,1.42,0,0,1-.121-.664l.021-1V522.4c-.265,0-.537.014-.821.04v-.221c.3-.114.569-.234.821-.359,0-.492-.017-1.025-.042-1.6a9.137,9.137,0,0,0,.868-.407l.134.1q-.042.407-.088,1.9.63,0,1.026-.012l.413-.023-.056.531-.212,0-.989,0Z" transform="translate(-268.802 -518.691)" fill="#1a1818"></path><path id="Path_1241" data-name="Path 1241" d="M306.088,525.49a2.269,2.269,0,0,0,.52,1.543,1.7,1.7,0,0,0,1.3.524,2.169,2.169,0,0,0,.715-.121,2.759,2.759,0,0,0,.706-.354l.088.078-.165.434a3.585,3.585,0,0,1-.882.371,3.441,3.441,0,0,1-.933.123,2.258,2.258,0,0,1-1.691-.66,2.481,2.481,0,0,1-.64-1.8,2.943,2.943,0,0,1,.361-1.5,2.179,2.179,0,0,1,.876-.774,2.55,2.55,0,0,1,1.244-.36,1.943,1.943,0,0,1,1.446.538,2.041,2.041,0,0,1,.534,1.5l-.01.306a4.367,4.367,0,0,1-.649.108c-.369.029-.878.042-1.528.042Zm.01-.387c.532.022,1.119.035,1.763.035.259,0,.508-.013.749-.035v-.287a2.087,2.087,0,0,0-.181-.862.927.927,0,0,0-.4-.42,1.272,1.272,0,0,0-.654-.17,1.125,1.125,0,0,0-.923.424A2.1,2.1,0,0,0,306.1,525.1Z" transform="translate(-272.548 -520.265)" fill="#1a1818"></path><path id="Path_1242" data-name="Path 1242" d="M317.207,524.146a4.118,4.118,0,0,0,.448-.514,1.963,1.963,0,0,1,.538-.514,1.059,1.059,0,0,1,.523-.144,1.1,1.1,0,0,1,.437.069.1.1,0,0,1,.069.1l-.005.051a7.236,7.236,0,0,0-.092,1.172h-.231a.858.858,0,0,0-.28-.37.669.669,0,0,0-.389-.111.9.9,0,0,0-.564.208.989.989,0,0,0-.344.576,7.6,7.6,0,0,0-.089,1.458,10.452,10.452,0,0,0,.059,1.2.289.289,0,0,0,.1.228,1.275,1.275,0,0,0,.579.1h.31v.3c-.529-.026-1.026-.039-1.5-.039q-.684,0-1.356.039v-.3l.495-.039a.515.515,0,0,0,.333-.1,1.072,1.072,0,0,0,.093-.5c.023-.5.035-1.085.035-1.765a5.712,5.712,0,0,0-.1-1.459c-.044-.094-.184-.14-.422-.14h-.434v-.3a8.15,8.15,0,0,0,.893-.15,3.477,3.477,0,0,0,.7-.228.26.26,0,0,1,.119-.035.09.09,0,0,1,.078.029.29.29,0,0,1,.02.139Z" transform="translate(-277.72 -520.243)" fill="#1a1818"></path><path id="Path_1243" data-name="Path 1243" d="M324.384,527.979l-.069-.071c.105-.26.192-.508.265-.745.5.023.919.035,1.252.035.276,0,.78-.012,1.517-.035l.042.075a4.481,4.481,0,0,0-.255.742c-.47-.029-.9-.045-1.3-.045C325.394,527.934,324.91,527.95,324.384,527.979Z" transform="translate(-282.179 -522.354)" fill="#1a1818"></path><path id="Path_1244" data-name="Path 1244" d="M332.443,524.4l0-.347,0-.356.561-.319a3.194,3.194,0,0,1,.667-.3,2.217,2.217,0,0,1,.613-.085,1.869,1.869,0,0,1,1.145.323,1.251,1.251,0,0,1,.526.814,16.305,16.305,0,0,1,.076,1.84,10.591,10.591,0,0,0,.062,1.529.241.241,0,0,0,.257.144h.4v.342c-.392-.026-.665-.039-.82-.039-.192,0-.451.013-.772.039l0-.458c0-.151,0-.3,0-.449l-1.069.813a.973.973,0,0,1-.283.154,1.355,1.355,0,0,1-.388.042,1.44,1.44,0,0,1-1.015-.325,1.145,1.145,0,0,1-.35-.88,1.625,1.625,0,0,1,.249-.908,1.44,1.44,0,0,1,.711-.572,13.61,13.61,0,0,1,2.144-.486,1.531,1.531,0,0,0-.29-.978,1.251,1.251,0,0,0-1-.408,1.776,1.776,0,0,0-.465.059,1.622,1.622,0,0,0-.4.183c-.1.247-.191.48-.274.706Zm2.718.818a6.166,6.166,0,0,0-1.822.58.953.953,0,0,0-.386.836.839.839,0,0,0,.221.611.769.769,0,0,0,.571.228,1.433,1.433,0,0,0,.742-.215,2.592,2.592,0,0,0,.674-.644l-.01-1.143Z" transform="translate(-286.06 -520.265)" fill="#1a1818"></path><path id="Path_1245" data-name="Path 1245" d="M344.51,522.357v2.025a5.914,5.914,0,0,0,.052,1.013.6.6,0,0,0,.208.349.637.637,0,0,0,.4.12.7.7,0,0,0,.292-.058,1.107,1.107,0,0,0,.282-.176l.148.18-.5.589a2.51,2.51,0,0,1-.323.087,1.578,1.578,0,0,1-.3.03,1.391,1.391,0,0,1-.648-.137.846.846,0,0,1-.383-.355,1.429,1.429,0,0,1-.119-.664l.019-1V522.4c-.263,0-.537.014-.818.04v-.221c.3-.114.569-.234.818-.359q0-.738-.04-1.6a9.377,9.377,0,0,0,.867-.407l.135.1q-.042.407-.089,1.9c.418,0,.762,0,1.027-.012l.412-.023-.057.531-.211,0-.99,0Z" transform="translate(-291.455 -518.691)" fill="#1a1818"></path><path id="Path_1246" data-name="Path 1246" d="M350.207,527.979l-.066-.071c.1-.26.19-.508.263-.745.5.023.918.035,1.254.035.273,0,.779-.012,1.515-.035l.04.075a4.549,4.549,0,0,0-.252.742c-.47-.029-.9-.045-1.3-.045C351.218,527.934,350.733,527.95,350.207,527.979Z" transform="translate(-295.125 -522.354)" fill="#1a1818"></path><path id="Path_1247" data-name="Path 1247" d="M359.727,525.116c.337.016.666.027.985.027.648,0,1.152-.016,1.517-.053a5.146,5.146,0,0,0,.79-.146l.309-1.215h.337c-.087.651-.153,1.257-.2,1.82a7.928,7.928,0,0,1-1.27.079l-2.456-.043c-.329,0-.843.021-1.541.058v-.273c.277-.12.439-.247.488-.387a8.821,8.821,0,0,0,.073-1.635v-2.835a9.354,9.354,0,0,0-.073-1.725c-.049-.121-.19-.18-.421-.18H357.7v-.326c.818.023,1.362.036,1.629.036q.539,0,1.456-.036v.326h-.639c-.183,0-.3.052-.346.16a5.736,5.736,0,0,0-.073,1.306v3.284l.017,1.455Z" transform="translate(-298.915 -517.901)" fill="#1a1818"></path><path id="Path_1248" data-name="Path 1248" d="M371.626,524.4l.006-.347-.006-.356.562-.319a3.179,3.179,0,0,1,.669-.3,2.207,2.207,0,0,1,.612-.085,1.891,1.891,0,0,1,1.147.323,1.249,1.249,0,0,1,.523.814,16.686,16.686,0,0,1,.078,1.84,11,11,0,0,0,.061,1.529c.033.095.121.144.258.144h.4v.342c-.39-.026-.666-.039-.82-.039-.192,0-.452.013-.773.039l0-.458c0-.151,0-.3,0-.449l-1.068.813a.988.988,0,0,1-.283.154,1.349,1.349,0,0,1-.387.042,1.437,1.437,0,0,1-1.015-.325,1.144,1.144,0,0,1-.351-.88,1.649,1.649,0,0,1,.25-.908,1.452,1.452,0,0,1,.711-.572,13.6,13.6,0,0,1,2.143-.486,1.516,1.516,0,0,0-.288-.978,1.253,1.253,0,0,0-1-.408,1.758,1.758,0,0,0-.464.059,1.591,1.591,0,0,0-.4.183c-.1.247-.189.48-.272.706Zm2.718.818a6.145,6.145,0,0,0-1.82.58.95.95,0,0,0-.387.836.849.849,0,0,0,.221.611.772.772,0,0,0,.573.228,1.439,1.439,0,0,0,.742-.215,2.556,2.556,0,0,0,.672-.644l-.009-1.143Z" transform="translate(-305.703 -520.265)" fill="#1a1818"></path><path id="Path_1249" data-name="Path 1249" d="M384.331,528.05H383.8q-.432-1.49-.98-3.245l-.33-1.036a.548.548,0,0,0-.2-.26.52.52,0,0,0-.3-.092h-.258v-.3c.547.023.965.036,1.259.036s.709-.013,1.264-.036v.3h-.278a.9.9,0,0,0-.438.073.175.175,0,0,0-.094.165q0,.253.881,3.194l1.115-2.435q.251-.567.577-1.384h.258c.148.419.3.823.459,1.208l1.061,2.7.791-2.111a7.659,7.659,0,0,0,.292-.936,1.12,1.12,0,0,0,.027-.207.224.224,0,0,0-.106-.191.576.576,0,0,0-.327-.073h-.341v-.3c.451.023.848.036,1.2.036.3,0,.594-.013.877-.036v.3h-.233a.45.45,0,0,0-.34.186,13.786,13.786,0,0,0-.888,1.891,25.169,25.169,0,0,0-.951,2.556h-.5c-.155-.43-.407-1.081-.754-1.96l-.658-1.657c-.478,1.018-.869,1.875-1.168,2.579C384.59,527.324,384.459,527.672,384.331,528.05Z" transform="translate(-310.965 -520.282)" fill="#1a1818"></path><path id="Path_1250" data-name="Path 1250" d="M401.775,530.073l.145.156a9.527,9.527,0,0,1-.636,1.293,12.038,12.038,0,0,1-.91,1.286l-.434.222-.153-.16a6.583,6.583,0,0,0,.656-1.253,5.013,5.013,0,0,0,.282-1.218A7.849,7.849,0,0,0,401.775,530.073Z" transform="translate(-320.013 -523.813)" fill="#1a1818"></path><path id="Path_1251" data-name="Path 1251" d="M416.692,523.092h-2.984l-.351.829a4.29,4.29,0,0,0-.345,1.012.205.205,0,0,0,.065.17.811.811,0,0,0,.327.081l.5.058v.326q-.5-.039-1.114-.039-.744,0-1.307.039v-.326l.156-.006a1.068,1.068,0,0,0,.466-.075.763.763,0,0,0,.225-.316c.244-.495.493-1.032.748-1.6l1.419-3.213q.567-1.281.773-1.857h.351l2.611,6.069a5.743,5.743,0,0,0,.35.746.526.526,0,0,0,.2.182,1.664,1.664,0,0,0,.511.075v.326c-.448-.026-.873-.039-1.28-.039-.378,0-.883.013-1.511.039v-.326l.511-.033a.959.959,0,0,0,.326-.054.179.179,0,0,0,.075-.147,2.059,2.059,0,0,0-.154-.484Zm-2.792-.424h2.6l-1.3-3.1Z" transform="translate(-325.876 -517.846)" fill="#1a1818"></path><path id="Path_1252" data-name="Path 1252" d="M432.84,520.567V518.7a.734.734,0,0,0-.071-.408.459.459,0,0,0-.331-.081h-.444v-.31a5.728,5.728,0,0,0,1.719-.377l.093.062q-.037.527-.061,1.269l-.021,1.375-.01.443v3.08a4.2,4.2,0,0,0,.052.96c.05.094.193.157.426.186l.366.046v.3c-.421-.032-.8-.049-1.122-.049q-.087,0-.651.049c.024-.234.043-.563.055-.992-.291.228-.663.544-1.116.951a2.565,2.565,0,0,1-.771.143,1.879,1.879,0,0,1-1.459-.655,2.522,2.522,0,0,1-.587-1.754,2.772,2.772,0,0,1,.225-1.169,1.749,1.749,0,0,1,.543-.7,8.161,8.161,0,0,1,.979-.556,2.122,2.122,0,0,1,.943-.255,2.688,2.688,0,0,1,.605.078A3.552,3.552,0,0,1,432.84,520.567Zm0,.888a2.581,2.581,0,0,0-.739-.573,1.777,1.777,0,0,0-.8-.192,1.341,1.341,0,0,0-1.085.5,2.191,2.191,0,0,0-.413,1.443,2.27,2.27,0,0,0,.471,1.516,1.458,1.458,0,0,0,1.145.547,1.379,1.379,0,0,0,1.261-.824,3.088,3.088,0,0,0,.159-1.153Z" transform="translate(-334.612 -517.519)" fill="#1a1818"></path><path id="Path_1253" data-name="Path 1253" d="M445.184,523.508v-.3c.352.023.669.036.948.036.323,0,.67-.013,1.039-.036v.3h-.16a.67.67,0,0,0-.234.045.518.518,0,0,0-.133.095,7.11,7.11,0,0,0-.37.72c-.39.8-.686,1.432-.894,1.895s-.467,1.09-.781,1.879h-.539q-.678-1.7-1.394-3.3c-.175-.391-.281-.64-.318-.756a1.08,1.08,0,0,0-.253-.455.557.557,0,0,0-.366-.121h-.17v-.3c.506.023.925.036,1.263.036q.541,0,1.186-.036v.3h-.225a1.037,1.037,0,0,0-.445.068.169.169,0,0,0-.086.153,1.384,1.384,0,0,0,.092.355q.1.271,1.25,3.123l.924-2.227a9.215,9.215,0,0,0,.386-1.075.655.655,0,0,0,.02-.14.16.16,0,0,0-.068-.144.953.953,0,0,0-.344-.078Z" transform="translate(-340.955 -520.373)" fill="#1a1818"></path><path id="Path_1254" data-name="Path 1254" d="M454.476,525.51a2.541,2.541,0,0,1,.328-1.286,2.34,2.34,0,0,1,.927-.9,2.8,2.8,0,0,1,1.355-.326,2.4,2.4,0,0,1,1.757.652,2.331,2.331,0,0,1,.659,1.735,2.563,2.563,0,0,1-.858,2.032,2.7,2.7,0,0,1-1.845.674,2.185,2.185,0,0,1-1.675-.694A2.651,2.651,0,0,1,454.476,525.51Zm.968-.365a3.59,3.59,0,0,0,.437,1.82,1.374,1.374,0,0,0,1.254.758,1.242,1.242,0,0,0,1.01-.476,2.259,2.259,0,0,0,.381-1.439,3.667,3.667,0,0,0-.224-1.351,1.814,1.814,0,0,0-.6-.833,1.417,1.417,0,0,0-.831-.261,1.322,1.322,0,0,0-.734.209,1.244,1.244,0,0,0-.484.551A2.472,2.472,0,0,0,455.444,525.145Z" transform="translate(-347.43 -520.265)" fill="#1a1818"></path><path id="Path_1255" data-name="Path 1255" d="M470.126,527.254l.139.124-.211.328a3.169,3.169,0,0,1-.721.287,3,3,0,0,1-.76.095,2.656,2.656,0,0,1-1.284-.286,2.027,2.027,0,0,1-.82-.837,2.764,2.764,0,0,1-.287-1.3,2.805,2.805,0,0,1,.221-1.158,1.825,1.825,0,0,1,.622-.772,6.259,6.259,0,0,1,1-.547,2.286,2.286,0,0,1,.944-.193,2.965,2.965,0,0,1,.684.069,2.686,2.686,0,0,1,.614.227,8.277,8.277,0,0,0-.139,1.368H469.8V524.4a.859.859,0,0,0-.093-.467.958.958,0,0,0-.437-.27,2.038,2.038,0,0,0-.741-.134,1.355,1.355,0,0,0-1.074.424,1.873,1.873,0,0,0-.378,1.27,2.6,2.6,0,0,0,.558,1.742,1.6,1.6,0,0,0,1.289.592,2.34,2.34,0,0,0,.609-.078A3.025,3.025,0,0,0,470.126,527.254Z" transform="translate(-353.298 -520.265)" fill="#1a1818"></path><path id="Path_1256" data-name="Path 1256" d="M476.631,524.4l.005-.347-.005-.356.561-.319a3.07,3.07,0,0,1,.669-.3,2.191,2.191,0,0,1,.61-.085,1.872,1.872,0,0,1,1.146.323,1.243,1.243,0,0,1,.525.814,16.223,16.223,0,0,1,.078,1.84,11.038,11.038,0,0,0,.061,1.529.241.241,0,0,0,.257.144h.4v.342q-.59-.039-.82-.039c-.193,0-.45.013-.775.039l.006-.458c0-.151,0-.3-.006-.449l-1.067.813a.948.948,0,0,1-.283.154,1.347,1.347,0,0,1-.387.042,1.445,1.445,0,0,1-1.018-.325,1.145,1.145,0,0,1-.35-.88,1.629,1.629,0,0,1,.25-.908,1.451,1.451,0,0,1,.712-.572,13.591,13.591,0,0,1,2.143-.486,1.49,1.49,0,0,0-.29-.978,1.245,1.245,0,0,0-1-.408,1.774,1.774,0,0,0-.465.059,1.629,1.629,0,0,0-.4.183c-.1.247-.19.48-.273.706Zm2.716.818a6.128,6.128,0,0,0-1.82.58.955.955,0,0,0-.386.836.844.844,0,0,0,.223.611.767.767,0,0,0,.571.228,1.43,1.43,0,0,0,.741-.215,2.519,2.519,0,0,0,.672-.644l-.009-1.143Z" transform="translate(-358.342 -520.265)" fill="#1a1818"></path><path id="Path_1257" data-name="Path 1257" d="M488.7,522.357v2.025a5.715,5.715,0,0,0,.052,1.013.594.594,0,0,0,.208.349.634.634,0,0,0,.4.12.683.683,0,0,0,.291-.058,1.013,1.013,0,0,0,.282-.176l.151.18-.506.589a2.438,2.438,0,0,1-.317.087,1.608,1.608,0,0,1-.3.03,1.381,1.381,0,0,1-.648-.137.853.853,0,0,1-.384-.355,1.444,1.444,0,0,1-.118-.664l.019-1V522.4c-.265,0-.538.014-.819.04v-.221q.442-.171.819-.359c0-.492-.019-1.025-.041-1.6a8.645,8.645,0,0,0,.864-.407l.138.1q-.043.407-.089,1.9c.418,0,.763,0,1.026-.012l.411-.023-.054.531-.212,0-.99,0Z" transform="translate(-363.74 -518.691)" fill="#1a1818"></path><path id="Path_1258" data-name="Path 1258" d="M495.461,525.49a2.264,2.264,0,0,0,.52,1.543,1.708,1.708,0,0,0,1.3.524,2.179,2.179,0,0,0,.716-.121,2.8,2.8,0,0,0,.708-.354l.088.078-.167.434a3.6,3.6,0,0,1-.882.371,3.431,3.431,0,0,1-.933.123,2.256,2.256,0,0,1-1.691-.66,2.482,2.482,0,0,1-.642-1.8,2.989,2.989,0,0,1,.361-1.5,2.189,2.189,0,0,1,.876-.774,2.555,2.555,0,0,1,1.243-.36,1.939,1.939,0,0,1,1.446.538,2.034,2.034,0,0,1,.537,1.5l-.011.306a4.277,4.277,0,0,1-.651.108c-.364.029-.876.042-1.528.042Zm.01-.387c.534.022,1.122.035,1.765.035.258,0,.507-.013.749-.035v-.287a2.073,2.073,0,0,0-.184-.862.928.928,0,0,0-.4-.42,1.27,1.27,0,0,0-.653-.17,1.133,1.133,0,0,0-.924.424A2.107,2.107,0,0,0,495.471,525.1Z" transform="translate(-367.483 -520.265)" fill="#1a1818"></path><path id="Path_1259" data-name="Path 1259" d="M505.616,526.408v.335a1.057,1.057,0,0,0,.073.5,1.335,1.335,0,0,0,.521.32,2.153,2.153,0,0,0,.8.157,1.3,1.3,0,0,0,.868-.287.87.87,0,0,0,.335-.683.684.684,0,0,0-.2-.508,1.575,1.575,0,0,0-.748-.3,7.551,7.551,0,0,1-1.356-.361,1.171,1.171,0,0,1-.5-.413,1.152,1.152,0,0,1-.163-.626,1.394,1.394,0,0,1,.5-1.115,2.093,2.093,0,0,1,1.413-.431,3.878,3.878,0,0,1,1.443.29c-.03.235-.054.628-.072,1.175h-.312a1.4,1.4,0,0,0-.1-.595,1,1,0,0,0-.435-.345,1.466,1.466,0,0,0-.668-.157,1.116,1.116,0,0,0-.748.241.763.763,0,0,0-.281.6.625.625,0,0,0,.223.52,3.551,3.551,0,0,0,1.228.381,4.1,4.1,0,0,1,.981.28.975.975,0,0,1,.38.391,1.242,1.242,0,0,1,.145.6,1.525,1.525,0,0,1-.6,1.2,2.37,2.37,0,0,1-1.592.5,5.812,5.812,0,0,1-1.421-.2c-.094-.023-.139-.059-.139-.107l.013-.072a1.486,1.486,0,0,0,.039-.274q.044-.5.044-.78l0-.248Z" transform="translate(-372.861 -520.265)" fill="#1a1818"></path><path id="Path_1260" data-name="Path 1260" d="M524.593,521.737l.314-.469c.354.016.63.027.827.027l.648-.016c.641-.016,1.171-.026,1.593-.029-.055.292-.093.54-.117.742a12.544,12.544,0,0,0-1.487-.118,2.022,2.022,0,0,1,.063.453,2.086,2.086,0,0,1-.2.856,3.579,3.579,0,0,1-.681.943,3.977,3.977,0,0,0,1,.555,2.58,2.58,0,0,0,.861.169,1.366,1.366,0,0,0,.594-.247l.076.247a10.258,10.258,0,0,0-.913.707,1.469,1.469,0,0,1-.423.064,3.122,3.122,0,0,1-1.847-.855,4.133,4.133,0,0,1-1.078.671,2.886,2.886,0,0,1-1.063.185,2.107,2.107,0,0,1-1.552-.6,2.005,2.005,0,0,1-.6-1.485,2.15,2.15,0,0,1,.443-1.334,4.43,4.43,0,0,1,1.177-.935,3.793,3.793,0,0,1-.3-1.324,1.951,1.951,0,0,1,.125-.726,1.129,1.129,0,0,1,.319-.42,6.921,6.921,0,0,1,.769-.6,1.2,1.2,0,0,1,.541-.121.907.907,0,0,1,.691.27,1.021,1.021,0,0,1,.249.719q0,1.061-1.512,2.113a9.872,9.872,0,0,0,2.136,2.705,2.361,2.361,0,0,0,.406-.654,1.786,1.786,0,0,0,.11-.629,1.321,1.321,0,0,0-.124-.6.255.255,0,0,0-.166-.136,3.933,3.933,0,0,0-.857-.049Zm0,2.761a11.379,11.379,0,0,1-2.188-2.845,2.217,2.217,0,0,0-.7.7,1.628,1.628,0,0,0-.2.794,1.9,1.9,0,0,0,.5,1.289,1.6,1.6,0,0,0,1.25.569A2.259,2.259,0,0,0,524.593,524.5Zm-1.658-3.682a2.06,2.06,0,0,0,.95-1.5.789.789,0,0,0-.16-.518.5.5,0,0,0-.4-.192.587.587,0,0,0-.473.231,1.113,1.113,0,0,0-.183.7A3.992,3.992,0,0,0,522.935,520.816Z" transform="translate(-380.585 -517.797)" fill="#1a1818"></path><path id="Path_1261" data-name="Path 1261" d="M544.752,525.116c.338.016.665.027.985.027.645,0,1.152-.016,1.517-.053a5.122,5.122,0,0,0,.787-.146l.312-1.215h.333c-.085.651-.153,1.257-.2,1.82a7.948,7.948,0,0,1-1.271.079l-2.453-.043c-.332,0-.846.021-1.542.058v-.273c.275-.12.437-.247.487-.387a8.623,8.623,0,0,0,.075-1.635v-2.835a9.143,9.143,0,0,0-.075-1.725c-.049-.121-.189-.18-.421-.18h-.561v-.326q1.224.035,1.629.036c.357,0,.842-.013,1.454-.036v.326h-.639c-.181,0-.3.052-.347.16a5.867,5.867,0,0,0-.07,1.306v3.284l.015,1.455Z" transform="translate(-391.671 -517.901)" fill="#1a1818"></path><path id="Path_1262" data-name="Path 1262" d="M557.129,525.49a2.282,2.282,0,0,0,.524,1.543,1.7,1.7,0,0,0,1.3.524,2.181,2.181,0,0,0,.715-.121,2.773,2.773,0,0,0,.707-.354l.086.078-.164.434a3.632,3.632,0,0,1-.883.371,3.45,3.45,0,0,1-.935.123,2.252,2.252,0,0,1-1.687-.66,2.479,2.479,0,0,1-.644-1.8,3,3,0,0,1,.361-1.5,2.181,2.181,0,0,1,.879-.774,2.538,2.538,0,0,1,1.242-.36,1.949,1.949,0,0,1,1.449.538,2.039,2.039,0,0,1,.533,1.5l-.011.306a4.271,4.271,0,0,1-.65.108c-.365.029-.875.042-1.53.042Zm.012-.387c.532.022,1.122.035,1.766.035.256,0,.505-.013.747-.035v-.287a2.111,2.111,0,0,0-.182-.862.924.924,0,0,0-.4-.42,1.27,1.27,0,0,0-.653-.17,1.13,1.13,0,0,0-.926.424A2.11,2.11,0,0,0,557.141,525.1Z" transform="translate(-398.398 -520.265)" fill="#1a1818"></path><path id="Path_1263" data-name="Path 1263" d="M571.18,523.935a1.75,1.75,0,0,1,.118.544,1.61,1.61,0,0,1-.277.885,2.018,2.018,0,0,1-.8.687,2.415,2.415,0,0,1-1.115.263l-.242-.006a2.432,2.432,0,0,0-.43.375.417.417,0,0,0-.089.241.352.352,0,0,0,.2.309,1.961,1.961,0,0,0,.82.111c.16,0,.385,0,.68-.016.424-.016.73-.029.918-.029a1.2,1.2,0,0,1,.623.133,1.029,1.029,0,0,1,.373.459,1.69,1.69,0,0,1,.157.743,1.97,1.97,0,0,1-.353,1.107,2.493,2.493,0,0,1-1.02.849,3.521,3.521,0,0,1-1.543.319,2.542,2.542,0,0,1-1.636-.462,1.408,1.408,0,0,1-.573-1.137,1.481,1.481,0,0,1,.3-.845,6.1,6.1,0,0,0,.9-.512,1.511,1.511,0,0,1-.544-.254.376.376,0,0,1-.122-.293.845.845,0,0,1,.118-.427,1.021,1.021,0,0,1,.34-.315l.5-.355a1.848,1.848,0,0,1-.891-.44,1.362,1.362,0,0,1-.36-.976,1.767,1.767,0,0,1,.266-.948,1.8,1.8,0,0,1,.791-.677,2.974,2.974,0,0,1,1.284-.316,2.205,2.205,0,0,1,.687.1,2.021,2.021,0,0,1,.606.353h.434a9.166,9.166,0,0,0,1.041-.047l.058.108a3.507,3.507,0,0,0-.273.469Zm-2.19,4.1a1.043,1.043,0,0,0-.5.082,1.647,1.647,0,0,0-.525.449,1.342,1.342,0,0,0-.156.678,1.178,1.178,0,0,0,.418.93,1.691,1.691,0,0,0,1.157.369,2.292,2.292,0,0,0,1.005-.212,1.608,1.608,0,0,0,.668-.582,1.367,1.367,0,0,0,.244-.762,1.031,1.031,0,0,0-.169-.589.744.744,0,0,0-.4-.326,2.284,2.284,0,0,0-.541-.037Zm1.41-3.284a1.568,1.568,0,0,0-.332-1.042,1.109,1.109,0,0,0-1.629-.071,1.227,1.227,0,0,0-.3.889,1.637,1.637,0,0,0,.328,1.082,1.037,1.037,0,0,0,.825.39,1.059,1.059,0,0,0,.8-.329A1.3,1.3,0,0,0,570.4,524.752Z" transform="translate(-403.838 -520.243)" fill="#1a1818"></path><path id="Path_1264" data-name="Path 1264" d="M579.421,524.4l0-.347,0-.356.562-.319a3.173,3.173,0,0,1,.668-.3,2.194,2.194,0,0,1,.611-.085,1.882,1.882,0,0,1,1.148.323,1.24,1.24,0,0,1,.522.814,16.141,16.141,0,0,1,.079,1.84,10.377,10.377,0,0,0,.063,1.529c.033.095.12.144.258.144h.4v.342c-.393-.026-.669-.039-.822-.039-.193,0-.45.013-.772.039l0-.458c0-.151,0-.3,0-.449l-1.07.813a.9.9,0,0,1-.284.154,1.336,1.336,0,0,1-.384.042,1.43,1.43,0,0,1-1.015-.325,1.143,1.143,0,0,1-.353-.88,1.641,1.641,0,0,1,.249-.908A1.452,1.452,0,0,1,580,525.4a13.538,13.538,0,0,1,2.144-.486,1.513,1.513,0,0,0-.29-.978,1.254,1.254,0,0,0-1-.408,1.737,1.737,0,0,0-.462.059,1.621,1.621,0,0,0-.4.183c-.1.247-.19.48-.273.706Zm2.72.818a6.154,6.154,0,0,0-1.822.58.956.956,0,0,0-.388.836.85.85,0,0,0,.222.611.773.773,0,0,0,.574.228,1.433,1.433,0,0,0,.739-.215,2.583,2.583,0,0,0,.674-.644l-.013-1.143Z" transform="translate(-409.873 -520.265)" fill="#1a1818"></path><path id="Path_1265" data-name="Path 1265" d="M591.659,517.581q-.088,1.509-.088,2.735v2.649a11.685,11.685,0,0,0,.068,1.791c.022.072.137.117.34.137l.439.046v.3c-.378-.026-.735-.039-1.078-.039q-.566,0-1.485.039v-.3l.444-.035c.194-.017.306-.066.333-.148a11.962,11.962,0,0,0,.068-1.833V520.29l-.006-.989-.015-.677a.524.524,0,0,0-.056-.31.511.511,0,0,0-.347-.081h-.422v-.31a5.151,5.151,0,0,0,1.715-.4Z" transform="translate(-415.298 -517.519)" fill="#1a1818"></path><path id="Path_1266" data-name="Path 1266" d="M608.707,520.04l-.042-.917a3.513,3.513,0,0,0-.961-.453,3.637,3.637,0,0,0-1.051-.15,2.978,2.978,0,0,0-2.227.846,3.065,3.065,0,0,0-.84,2.263,3.666,3.666,0,0,0,.426,1.775,3.12,3.12,0,0,0,1.208,1.233,3.239,3.239,0,0,0,1.656.453,5.816,5.816,0,0,0,1.365-.16,2.73,2.73,0,0,0,1.015-.5l.112.1c-.075.157-.141.316-.2.479a6.077,6.077,0,0,1-1.213.449,4.944,4.944,0,0,1-1.233.153,4.86,4.86,0,0,1-2.23-.488,3.567,3.567,0,0,1-1.477-1.354,3.72,3.72,0,0,1-.518-1.952,3.642,3.642,0,0,1,.525-1.945,3.461,3.461,0,0,1,1.47-1.334,5.26,5.26,0,0,1,2.338-.472,7.419,7.419,0,0,1,1.7.238c.321.078.585.133.787.172a4.568,4.568,0,0,0-.268,1.555Z" transform="translate(-421.634 -517.797)" fill="#1a1818"></path><path id="Path_1267" data-name="Path 1267" d="M617.837,525.51a2.547,2.547,0,0,1,.329-1.286,2.344,2.344,0,0,1,.928-.9,2.786,2.786,0,0,1,1.351-.326,2.4,2.4,0,0,1,1.76.652,2.331,2.331,0,0,1,.658,1.735,2.569,2.569,0,0,1-.859,2.032,2.7,2.7,0,0,1-1.843.674,2.187,2.187,0,0,1-1.677-.694A2.646,2.646,0,0,1,617.837,525.51Zm.97-.365a3.589,3.589,0,0,0,.436,1.82,1.374,1.374,0,0,0,1.255.758,1.234,1.234,0,0,0,1.008-.476,2.258,2.258,0,0,0,.386-1.439,3.561,3.561,0,0,0-.23-1.351,1.779,1.779,0,0,0-.6-.833,1.416,1.416,0,0,0-.827-.261,1.323,1.323,0,0,0-.736.209,1.228,1.228,0,0,0-.481.551A2.448,2.448,0,0,0,618.807,525.145Z" transform="translate(-429.325 -520.265)" fill="#1a1818"></path><path id="Path_1268" data-name="Path 1268" d="M631.073,523.961l.777-.691a.9.9,0,0,1,.3-.178,2.1,2.1,0,0,1,.685-.118,1.967,1.967,0,0,1,.953.225,1.324,1.324,0,0,1,.575.585,2.661,2.661,0,0,1,.177,1.121l-.019,1.625a3.314,3.314,0,0,0,.071.97.411.411,0,0,0,.382.163h.367v.3q-.551-.039-.949-.039c-.264,0-.542.013-.841.039q.1-1.005.1-2.719a2.78,2.78,0,0,0-.122-.979.966.966,0,0,0-.406-.466,1.314,1.314,0,0,0-.691-.176,1.417,1.417,0,0,0-.853.253,1.06,1.06,0,0,0-.429.557,5.824,5.824,0,0,0-.052,1.052c0,.628.005,1.214.016,1.754,0,.163.025.264.075.3a.59.59,0,0,0,.423.117h.368v.3c-.579-.026-1.046-.039-1.389-.039q-.548,0-1.244.039v-.3h.369c.255,0,.405-.059.447-.175a16.677,16.677,0,0,0,.062-2.139c0-.59-.006-1.05-.021-1.38a.306.306,0,0,0-.081-.228.761.761,0,0,0-.408-.063h-.369v-.3a5.843,5.843,0,0,0,.79-.14,5.268,5.268,0,0,0,.788-.267.229.229,0,0,1,.084-.019c.055,0,.086.039.086.116l-.007.2Z" transform="translate(-435.093 -520.243)" fill="#1a1818"></path><path id="Path_1269" data-name="Path 1269" d="M642.987,526.408v.335a1.044,1.044,0,0,0,.071.5,1.372,1.372,0,0,0,.525.32,2.135,2.135,0,0,0,.8.157,1.3,1.3,0,0,0,.869-.287.881.881,0,0,0,.335-.683.68.68,0,0,0-.2-.508,1.554,1.554,0,0,0-.745-.3,7.569,7.569,0,0,1-1.357-.361,1.064,1.064,0,0,1-.661-1.039,1.4,1.4,0,0,1,.5-1.115,2.1,2.1,0,0,1,1.413-.431,3.857,3.857,0,0,1,1.441.29c-.028.235-.051.628-.069,1.175H645.6a1.416,1.416,0,0,0-.1-.595,1.024,1.024,0,0,0-.433-.345,1.472,1.472,0,0,0-.667-.157,1.123,1.123,0,0,0-.752.241.768.768,0,0,0-.281.6.621.621,0,0,0,.224.52,3.546,3.546,0,0,0,1.226.381,4.038,4.038,0,0,1,.98.28.97.97,0,0,1,.384.391,1.27,1.27,0,0,1,.143.6,1.532,1.532,0,0,1-.593,1.2,2.387,2.387,0,0,1-1.6.5,5.817,5.817,0,0,1-1.421-.2c-.091-.023-.141-.059-.141-.107l.017-.072a2.162,2.162,0,0,0,.034-.274,7.765,7.765,0,0,0,.045-.78l0-.248Z" transform="translate(-441.726 -520.265)" fill="#1a1818"></path><path id="Path_1270" data-name="Path 1270" d="M655.776,527.975l.057-.929-.3.33a2.206,2.206,0,0,1-.723.543,2.355,2.355,0,0,1-.912.156,1.56,1.56,0,0,1-.8-.2,1.184,1.184,0,0,1-.485-.507,2.387,2.387,0,0,1-.153-.986c0-.235.005-.509.017-.814l.016-.833a4.442,4.442,0,0,0-.05-.97c-.031-.065-.142-.1-.329-.1h-.459v-.284a5.59,5.59,0,0,0,1.3-.258l.429-.158c.059,0,.089.042.089.13l-.034.524c-.052.73-.074,1.407-.074,2.032a5.937,5.937,0,0,0,.074,1.2.834.834,0,0,0,.327.433,1.036,1.036,0,0,0,.6.172,1.4,1.4,0,0,0,.876-.309,1.549,1.549,0,0,0,.523-.626,4.636,4.636,0,0,0,.068-1.086,10.614,10.614,0,0,0-.057-1.661c-.035-.075-.189-.111-.462-.111H654.9v-.284a8.567,8.567,0,0,0,.906-.143,4.987,4.987,0,0,0,.781-.248.2.2,0,0,1,.095-.025c.058,0,.088.032.088.1l-.023.479c-.05,1.175-.073,2.214-.073,3.105a2.557,2.557,0,0,0,.073.864.6.6,0,0,0,.492.156h.3v.3q-.645-.039-1.094-.039A5.824,5.824,0,0,0,655.776,527.975Z" transform="translate(-446.278 -520.253)" fill="#1a1818"></path><path id="Path_1271" data-name="Path 1271" d="M666.743,517.581q-.086,1.509-.087,2.735v2.649a11.442,11.442,0,0,0,.068,1.791c.023.072.138.117.339.137l.44.046v.3c-.378-.026-.738-.039-1.079-.039-.378,0-.876.013-1.485.039v-.3l.443-.035c.2-.017.306-.066.336-.148a12.767,12.767,0,0,0,.064-1.833V520.29l-.005-.989-.014-.677a.523.523,0,0,0-.056-.31.509.509,0,0,0-.347-.081h-.421v-.31a5.209,5.209,0,0,0,1.716-.4Z" transform="translate(-452.938 -517.519)" fill="#1a1818"></path><path id="Path_1272" data-name="Path 1272" d="M673.165,522.357v2.025a5.633,5.633,0,0,0,.053,1.013.607.607,0,0,0,.207.349.633.633,0,0,0,.4.12.679.679,0,0,0,.291-.058,1.1,1.1,0,0,0,.283-.176l.149.18-.506.589a2.542,2.542,0,0,1-.318.087,1.581,1.581,0,0,1-.3.03,1.405,1.405,0,0,1-.65-.137.84.84,0,0,1-.382-.355,1.458,1.458,0,0,1-.122-.664l.025-1V522.4c-.268,0-.541.014-.82.04v-.221c.3-.114.566-.234.82-.359-.007-.492-.019-1.025-.043-1.6a8.413,8.413,0,0,0,.863-.407l.137.1c-.028.271-.054.906-.088,1.9q.63,0,1.029-.012l.41-.023-.056.531-.21,0-.99,0Z" transform="translate(-456.215 -518.691)" fill="#1a1818"></path><path id="Path_1273" data-name="Path 1273" d="M679.443,524.4l0-.347,0-.356.56-.319a3.284,3.284,0,0,1,.667-.3,2.226,2.226,0,0,1,.613-.085,1.875,1.875,0,0,1,1.145.323,1.251,1.251,0,0,1,.525.814,16.662,16.662,0,0,1,.078,1.84,10.844,10.844,0,0,0,.061,1.529c.035.095.12.144.261.144h.4v.342c-.391-.026-.664-.039-.821-.039q-.289,0-.771.039l0-.458c0-.151,0-.3,0-.449l-1.069.813a1.023,1.023,0,0,1-.282.154,1.374,1.374,0,0,1-.388.042,1.433,1.433,0,0,1-1.015-.325,1.146,1.146,0,0,1-.351-.88,1.651,1.651,0,0,1,.245-.908,1.473,1.473,0,0,1,.713-.572,13.659,13.659,0,0,1,2.146-.486,1.516,1.516,0,0,0-.291-.978,1.25,1.25,0,0,0-1-.408,1.738,1.738,0,0,0-.463.059,1.557,1.557,0,0,0-.4.183c-.1.247-.191.48-.273.706Zm2.718.818a6.214,6.214,0,0,0-1.823.58.954.954,0,0,0-.385.836.844.844,0,0,0,.222.611.771.771,0,0,0,.57.228,1.442,1.442,0,0,0,.743-.215,2.583,2.583,0,0,0,.674-.644l-.008-1.143Z" transform="translate(-460.016 -520.265)" fill="#1a1818"></path><path id="Path_1274" data-name="Path 1274" d="M691.352,523.961l.782-.691a.855.855,0,0,1,.294-.178,2.086,2.086,0,0,1,.679-.118,1.985,1.985,0,0,1,.959.225,1.382,1.382,0,0,1,.58.585,2.75,2.75,0,0,1,.172,1.121l-.019,1.625a3.331,3.331,0,0,0,.071.97.4.4,0,0,0,.381.163h.368v.3c-.365-.026-.684-.039-.951-.039s-.541.013-.839.039q.1-1.005.1-2.719a2.745,2.745,0,0,0-.122-.979.985.985,0,0,0-.406-.466,1.3,1.3,0,0,0-.69-.176,1.4,1.4,0,0,0-.849.253,1.062,1.062,0,0,0-.434.557,6,6,0,0,0-.051,1.052c0,.628.006,1.214.016,1.754,0,.163.026.264.072.3a.607.607,0,0,0,.427.117h.366v.3c-.582-.026-1.044-.039-1.388-.039q-.549,0-1.248.039v-.3h.371c.254,0,.407-.059.451-.175a17.156,17.156,0,0,0,.06-2.139c0-.59-.005-1.05-.019-1.38a.321.321,0,0,0-.082-.228.77.77,0,0,0-.41-.063h-.371v-.3a5.946,5.946,0,0,0,.794-.14,5.224,5.224,0,0,0,.787-.267.238.238,0,0,1,.085-.019c.058,0,.082.039.082.116l0,.2Z" transform="translate(-465.31 -520.243)" fill="#1a1818"></path><path id="Path_1275" data-name="Path 1275" d="M704.259,522.357v2.025a6.3,6.3,0,0,0,.051,1.013.575.575,0,0,0,.61.468.7.7,0,0,0,.294-.058,1.068,1.068,0,0,0,.28-.176l.149.18-.5.589a2.464,2.464,0,0,1-.322.087,1.569,1.569,0,0,1-.3.03,1.4,1.4,0,0,1-.648-.137.871.871,0,0,1-.383-.355,1.473,1.473,0,0,1-.117-.664l.02-1V522.4c-.265,0-.542.014-.82.04v-.221c.3-.114.57-.234.82-.359,0-.492-.016-1.025-.043-1.6a8.951,8.951,0,0,0,.867-.407l.137.1q-.043.407-.092,1.9c.421,0,.763,0,1.03-.012l.412-.023-.059.531-.211,0-.99,0Z" transform="translate(-471.803 -518.691)" fill="#1a1818"></path><path id="Path_1276" data-name="Path 1276" d="M710.6,526.408v.335a1.056,1.056,0,0,0,.07.5,1.35,1.35,0,0,0,.526.32,2.139,2.139,0,0,0,.8.157,1.3,1.3,0,0,0,.866-.287.877.877,0,0,0,.333-.683.684.684,0,0,0-.2-.508,1.558,1.558,0,0,0-.746-.3,7.675,7.675,0,0,1-1.359-.361,1.15,1.15,0,0,1-.494-.413,1.132,1.132,0,0,1-.167-.626,1.4,1.4,0,0,1,.5-1.115,2.1,2.1,0,0,1,1.417-.431,3.855,3.855,0,0,1,1.438.29c-.029.235-.052.628-.071,1.175h-.309a1.338,1.338,0,0,0-.1-.595,1,1,0,0,0-.432-.345,1.481,1.481,0,0,0-.668-.157,1.124,1.124,0,0,0-.752.241.778.778,0,0,0-.277.6.623.623,0,0,0,.218.52,3.606,3.606,0,0,0,1.228.381,4.007,4.007,0,0,1,.98.28.987.987,0,0,1,.385.391,1.258,1.258,0,0,1,.142.6,1.516,1.516,0,0,1-.6,1.2,2.369,2.369,0,0,1-1.589.5,5.823,5.823,0,0,1-1.425-.2c-.091-.023-.141-.059-.141-.107l.017-.072a1.748,1.748,0,0,0,.035-.274c.034-.335.049-.6.049-.78l-.006-.248Z" transform="translate(-475.622 -520.265)" fill="#1a1818"></path></g></g></svg> 